<svg id="svg" version="1.1" xmlns="http://www.w3.org/2000/svg" xmlns:xlink="http://www.w3.org/1999/xlink" width="400" height="400" viewBox="0, 0, 400,400"><g id="svgg"><path id="path0" d="M182.031 9.807 C 168.105 12.793,155.276 19.623,142.644 30.776 L 137.241 35.547 127.019 35.643 C 96.945 35.927,78.125 54.667,78.125 84.329 L 78.125 92.800 73.466 97.114 C 66.710 103.369,60.033 108.348,52.913 112.439 C 49.474 114.416,46.758 116.381,46.876 116.806 C 47.087 117.562,88.786 158.016,89.747 158.396 C 90.015 158.503,91.203 156.745,92.388 154.490 C 95.299 148.949,101.337 141.030,108.197 133.756 L 113.876 127.734 125.493 127.207 C 142.600 126.430,149.964 123.476,160.317 113.241 C 172.916 100.786,177.084 84.430,171.887 67.848 C 169.178 59.208,169.503 58.597,182.298 48.289 C 197.604 35.957,214.876 25.924,228.906 21.216 L 235.547 18.987 231.641 17.012 C 216.962 9.591,196.736 6.654,182.031 9.807 M252.839 150.377 C 191.022 202.043,140.452 244.627,140.463 245.009 C 140.473 245.391,155.541 260.195,173.947 277.908 L 207.413 310.112 211.070 306.510 L 214.727 302.908 214.981 287.977 C 215.338 266.950,215.116 267.187,234.412 267.188 L 246.875 267.188 246.876 255.664 C 246.878 237.116,248.073 235.941,266.924 235.939 L 278.769 235.938 279.033 223.633 C 279.419 205.622,279.583 205.469,298.474 205.469 L 310.938 205.469 310.939 193.945 C 310.941 175.384,312.126 174.222,331.055 174.220 L 342.969 174.219 342.969 163.770 C 342.969 150.978,343.343 148.965,346.261 146.047 L 348.558 143.750 361.779 143.750 L 375.000 143.750 375.044 132.617 C 375.116 114.451,376.229 113.034,390.737 112.629 C 398.754 112.405,400.050 112.193,399.659 111.175 C 399.021 109.513,367.179 58.403,366.108 57.322 C 365.461 56.669,336.013 80.863,252.839 150.377 M9.106 115.167 C 1.217 118.072,-2.479 127.144,1.367 134.159 C 3.256 137.604,67.312 199.195,71.265 201.367 C 82.340 207.453,95.565 196.522,91.122 184.955 C 89.741 181.358,25.939 118.980,20.844 116.244 C 17.234 114.307,12.597 113.881,9.106 115.167 M176.978 120.200 C 173.453 124.687,168.825 128.973,163.448 132.728 L 160.881 134.522 174.776 147.913 C 182.419 155.279,191.328 163.854,194.575 166.969 L 200.479 172.633 211.130 163.855 C 216.988 159.028,221.714 154.855,221.633 154.583 C 221.435 153.924,182.055 116.082,181.255 115.782 C 180.912 115.654,178.988 117.642,176.978 120.200 M296.094 235.908 C 296.094 249.152,295.148 250.896,286.879 252.906 L 284.305 253.532 312.960 281.146 C 329.204 296.801,342.743 309.232,344.220 309.849 C 356.166 314.840,368.113 303.853,363.321 292.283 C 362.525 290.363,319.988 248.494,300.195 230.150 L 296.094 226.349 296.094 235.908 M98.281 247.974 C 87.963 251.616,75.701 259.841,63.810 271.098 C 52.731 281.584,52.489 283.370,60.920 292.398 C 70.435 302.586,75.321 303.308,85.394 296.011 C 91.930 291.277,90.981 290.617,125.740 324.078 C 160.122 357.176,158.955 355.408,152.440 364.506 C 146.724 372.488,147.451 376.449,156.030 384.076 C 167.602 394.364,169.225 394.158,182.090 380.769 C 201.013 361.075,209.281 344.084,205.382 332.901 C 204.367 329.988,120.010 248.097,116.747 246.856 C 113.021 245.439,103.897 245.992,98.281 247.974 M123.161 276.004 C 126.054 277.642,173.531 323.714,174.755 326.071 C 177.407 331.181,173.195 337.500,167.137 337.500 C 164.305 337.500,163.379 336.832,154.501 328.380 C 126.222 301.459,113.022 288.438,111.972 286.429 C 108.511 279.807,116.587 272.283,123.161 276.004 " stroke="none" fill="#000000" fill-rule="evenodd"></path></g></svg>