<svg width="1680" height="960" viewBox="0 0 1680 960" fill="none" xmlns="http://www.w3.org/2000/svg">
<path d="M1680 959H0V809.5L1680 613V959Z" fill="white"/>
<g clip-path="url(#clip0_877_1137)">
<path d="M1217.81 394.092C1217.81 394.092 1231.69 408.426 1232.92 416.507L1220.85 423.457L1206.92 399.051L1199.58 366.471C1198.89 365.78 1198.39 364.919 1198.14 363.975C1197.89 363.031 1197.9 362.038 1198.16 361.097C1198.41 360.155 1198.92 359.299 1199.61 358.614C1200.31 357.93 1201.17 357.442 1202.12 357.2C1203.07 356.958 1204.06 356.971 1205 357.236C1205.94 357.502 1206.79 358.012 1207.47 358.714C1208.15 359.415 1208.63 360.284 1208.86 361.232C1209.1 362.18 1209.08 363.173 1208.8 364.11L1217.81 394.092Z" fill="#FFB6B6"/>
<path d="M1346.47 359.722C1346.23 358.775 1346.25 357.782 1346.51 356.844C1346.78 355.905 1347.3 355.055 1348 354.379C1348.71 353.703 1349.58 353.225 1350.52 352.994C1351.47 352.763 1352.47 352.788 1353.4 353.065C1354.34 353.342 1355.18 353.861 1355.86 354.571C1356.53 355.281 1357 356.155 1357.22 357.106C1357.44 358.056 1357.41 359.049 1357.13 359.983C1356.84 360.917 1356.31 361.759 1355.6 362.423L1347.05 394.708L1332.23 418.581L1320.43 411.189C1321.96 403.159 1336.35 389.349 1336.35 389.349L1346.47 359.722Z" fill="#FFB6B6"/>
<path d="M1126.66 476.823C1126.57 457.796 1133.87 439.863 1141.99 422.989C1150.38 405.554 1159.93 388.449 1164.67 369.546C1167.43 359.136 1168.11 348.281 1166.65 337.609C1166.36 335.706 1163.47 336.515 1163.75 338.407C1166.66 357.714 1160.38 376.944 1152.55 394.357C1144.8 411.625 1135.12 428.052 1129.07 446.06C1125.59 455.947 1123.76 466.341 1123.66 476.823C1123.67 477.212 1123.83 477.581 1124.11 477.851C1124.39 478.121 1124.77 478.272 1125.16 478.272C1125.55 478.272 1125.92 478.121 1126.2 477.851C1126.48 477.581 1126.64 477.212 1126.66 476.823H1126.66Z" fill="#E6E6E6"/>
<path d="M1213.84 483.208C1213.2 475.108 1218.92 468.35 1225.67 464.632C1234.24 459.914 1244.6 460.319 1254.07 460.6C1263.78 460.987 1273.5 460.525 1283.13 459.217C1305.87 455.913 1327.51 447.284 1346.29 434.032C1365.06 420.781 1380.44 403.282 1391.17 382.962C1400.07 366.108 1406.34 346.675 1403.84 327.428C1403.53 325.088 1403.1 322.766 1402.55 320.473C1402.09 318.598 1399.2 319.392 1399.65 321.271C1404.31 340.392 1398.97 360.42 1390.5 377.681C1382.71 393.504 1372.09 407.767 1359.16 419.76C1345.62 432.321 1329.76 442.116 1312.46 448.595C1303.48 451.954 1294.19 454.42 1284.72 455.957C1275.13 457.442 1265.41 458.008 1255.71 457.648C1246.07 457.368 1235.84 456.859 1226.78 460.762C1219.69 463.817 1213.1 469.869 1211.27 477.604C1210.84 479.438 1210.69 481.329 1210.84 483.208C1211 485.119 1214 485.136 1213.84 483.208V483.208Z" fill="#E6E6E6"/>
<path d="M1519.39 205.907C1515.86 204.317 1512.39 202.787 1509.07 201.377C1508.57 201.167 1508.07 200.947 1507.57 200.737L1507.51 200.707C1504.52 199.427 1501.52 198.174 1498.52 196.947C1496.42 196.087 1494.33 195.237 1492.23 194.407C1491.41 194.067 1490.59 193.747 1489.76 193.427C1488.43 192.897 1487.09 192.377 1485.76 191.857C1484.66 191.427 1483.55 191.007 1482.45 190.587C1481.18 190.097 1479.91 189.627 1478.65 189.147C1477.15 188.587 1475.65 188.034 1474.16 187.487C1474.14 187.479 1474.12 187.476 1474.11 187.477C1472.98 187.057 1471.85 186.647 1470.73 186.247C1455.52 180.767 1440.09 175.867 1424.85 171.677C1424.3 171.527 1423.75 171.377 1423.2 171.227C1422.25 170.967 1421.3 170.707 1420.35 170.447C1418.67 169.997 1416.98 169.557 1415.29 169.127C1413.7 168.707 1412.1 168.307 1410.5 167.907C1409.09 167.557 1407.68 167.207 1406.26 166.867C1404.87 166.527 1403.48 166.197 1402.08 165.877C1397.91 164.897 1393.74 163.971 1389.59 163.097C1389.56 163.089 1389.53 163.086 1389.5 163.087C1388.5 162.867 1387.51 162.657 1386.51 162.457C1371.33 159.347 1355.89 156.847 1340.62 155.017C1339.87 154.927 1339.12 154.837 1338.37 154.757H1338.35C1338.22 154.737 1338.08 154.727 1337.95 154.717C1336.69 154.567 1335.43 154.427 1334.17 154.297C1332.51 154.117 1330.86 153.947 1329.2 153.787C1325.27 153.397 1321.34 153.057 1317.43 152.767C1316.44 152.687 1315.46 152.617 1314.48 152.557C1313.35 152.467 1312.22 152.397 1311.1 152.327C1309.94 152.247 1308.78 152.177 1307.62 152.117C1307.18 152.087 1306.75 152.067 1306.32 152.047C1305.78 152.007 1305.23 151.987 1304.69 151.957C1303.88 151.917 1303.07 151.877 1302.26 151.837C1287.02 151.107 1271.59 151.047 1256.39 151.657C1255.55 151.687 1254.71 151.727 1253.86 151.767H1253.83C1253.22 151.797 1252.61 151.817 1251.99 151.847C1251.77 151.857 1251.54 151.867 1251.32 151.877C1249.81 151.957 1248.3 152.037 1246.79 152.127C1245.18 152.217 1243.58 152.317 1241.98 152.427C1240.97 152.497 1239.97 152.567 1238.97 152.637C1238.31 152.687 1237.65 152.737 1236.98 152.787C1232.8 153.107 1228.62 153.477 1224.47 153.897C1223.08 154.037 1221.7 154.177 1220.32 154.327C1219.55 154.407 1218.79 154.487 1218.03 154.577C1202.79 156.297 1187.35 158.727 1172.15 161.787C1171.15 161.987 1170.14 162.197 1169.13 162.407C1169.11 162.407 1169.09 162.417 1169.07 162.417C1168.92 162.447 1168.76 162.477 1168.61 162.517C1167.57 162.727 1166.52 162.947 1165.48 163.177C1164.33 163.417 1163.19 163.667 1162.04 163.917C1161.08 164.127 1160.12 164.347 1159.16 164.567C1156.9 165.077 1154.63 165.597 1152.37 166.147C1147.77 167.247 1143.17 168.411 1138.58 169.637C1137.54 169.917 1136.49 170.197 1135.44 170.487C1135.43 170.488 1135.42 170.492 1135.42 170.497C1134.88 170.637 1134.33 170.787 1133.79 170.937C1118.59 175.117 1103.16 180.057 1087.92 185.637C1086.8 186.047 1085.68 186.457 1084.55 186.887C1084.52 186.889 1084.49 186.896 1084.47 186.907C1081.44 188.037 1078.39 189.197 1075.33 190.387C1074.22 190.827 1073.1 191.267 1071.98 191.707C1070.9 192.137 1069.81 192.567 1068.73 193.007C1067.78 193.387 1066.84 193.767 1065.89 194.157C1065.13 194.467 1064.38 194.777 1063.62 195.087C1061.02 196.167 1058.42 197.261 1055.83 198.367C1054.26 199.047 1052.68 199.727 1051.11 200.417C1050.6 200.637 1050.08 200.857 1049.57 201.087C1045.79 202.757 1042.35 204.307 1039.05 205.837C1035.53 207.463 1032.56 210.058 1030.46 213.317C1028.37 216.577 1027.26 220.365 1027.25 224.237V259.527C1027.25 262.671 1027.98 265.772 1029.39 268.584C1030.79 271.395 1032.84 273.841 1035.35 275.725C1037.87 277.61 1040.79 278.882 1043.88 279.442C1046.98 280.001 1050.16 279.832 1053.18 278.947C1054.67 278.507 1056.16 278.067 1057.66 277.627C1058.91 277.257 1060.17 276.897 1061.42 276.537C1062.79 276.147 1064.15 275.757 1065.52 275.367C1068.65 274.497 1071.8 273.627 1074.95 272.787C1076.42 272.397 1077.89 272.007 1079.36 271.617C1081.67 271.007 1083.98 270.417 1086.29 269.827C1086.93 269.667 1087.57 269.507 1088.21 269.347C1098.26 266.827 1108.36 264.487 1118.38 262.367C1119.41 262.147 1120.44 261.937 1121.46 261.727C1125.67 260.847 1129.85 260.014 1134.02 259.227L1137.02 258.657H1137.05C1138.03 258.467 1139.01 258.287 1139.99 258.107C1142.73 257.607 1145.48 257.121 1148.26 256.647C1149.85 256.367 1151.45 256.097 1153.05 255.837C1153.21 255.807 1153.37 255.777 1153.53 255.757C1156.29 255.297 1159.05 254.854 1161.83 254.427C1163.71 254.137 1165.6 253.847 1167.49 253.577C1169.1 253.337 1170.71 253.107 1172.32 252.877C1187.58 250.737 1202.99 249.027 1218.13 247.827C1219.44 247.717 1220.75 247.617 1222.06 247.517C1227.14 247.137 1232.26 246.797 1237.39 246.517C1243.73 246.177 1250.09 245.907 1256.42 245.717C1271.62 245.247 1287.03 245.247 1302.22 245.717C1308.56 245.907 1314.92 246.177 1321.26 246.517C1326.39 246.797 1331.51 247.137 1336.59 247.517C1337.9 247.617 1339.21 247.717 1340.52 247.827C1355.65 249.027 1371.06 250.727 1386.34 252.877C1387.07 252.977 1387.79 253.087 1388.52 253.187C1388.78 253.227 1389.03 253.257 1389.29 253.297C1390.4 253.457 1391.51 253.627 1392.62 253.787C1396.79 254.407 1400.95 255.064 1405.12 255.757C1406.19 255.927 1407.26 256.107 1408.32 256.287C1410.61 256.677 1412.89 257.074 1415.16 257.477C1416.48 257.717 1417.79 257.957 1419.1 258.197C1419.93 258.347 1420.77 258.497 1421.6 258.657C1422.61 258.847 1423.62 259.037 1424.62 259.227C1426.27 259.537 1427.92 259.857 1429.58 260.187C1430.62 260.397 1431.67 260.597 1432.72 260.817C1443.91 263.067 1455.21 265.597 1466.46 268.357C1467.63 268.647 1468.8 268.937 1469.97 269.227C1470.13 269.267 1470.28 269.307 1470.44 269.347C1471.65 269.647 1472.86 269.957 1474.07 270.267C1475.8 270.707 1477.53 271.157 1479.27 271.617C1480.74 271.997 1482.21 272.387 1483.68 272.787C1488.22 273.997 1492.76 275.257 1497.27 276.547C1500.02 277.337 1502.75 278.137 1505.48 278.947H1505.5C1506.58 279.269 1507.69 279.496 1508.82 279.627C1509.61 279.727 1510.41 279.777 1511.22 279.777C1516.58 279.766 1521.71 277.627 1525.5 273.83C1529.28 270.032 1531.4 264.888 1531.4 259.527V224.397C1531.39 220.486 1530.25 216.661 1528.12 213.382C1525.99 210.102 1522.96 207.507 1519.39 205.907Z" fill="#EEF5FA"/>
<path d="M1087.27 187.257C1086.87 186.985 1086.42 186.81 1085.95 186.746C1085.48 186.682 1085 186.73 1084.55 186.887C1084.52 186.889 1084.49 186.896 1084.47 186.907C1081.44 188.037 1078.39 189.197 1075.33 190.387C1074.22 190.827 1073.1 191.267 1071.98 191.707C1070.9 192.137 1069.81 192.567 1068.73 193.007C1067.78 193.387 1066.84 193.767 1065.89 194.157C1065.13 194.467 1064.38 194.777 1063.62 195.087C1061.02 196.167 1058.42 197.261 1055.83 198.367C1054.26 199.047 1052.68 199.727 1051.11 200.417C1050.56 200.656 1050.09 201.048 1049.77 201.548C1049.44 202.047 1049.27 202.631 1049.27 203.227V275.997C1049.26 276.477 1049.38 276.951 1049.59 277.38C1049.81 277.81 1050.12 278.182 1050.51 278.467C1050.75 278.647 1051.02 278.792 1051.31 278.897C1051.91 279.109 1052.56 279.123 1053.18 278.937L1057.65 277.617C1058.9 277.257 1060.15 276.897 1061.4 276.537C1062.77 276.147 1064.14 275.757 1065.52 275.367C1068.65 274.497 1071.8 273.627 1074.95 272.787C1076.42 272.387 1077.89 271.997 1079.36 271.617C1081.67 271.007 1083.98 270.417 1086.29 269.827C1086.86 269.682 1087.37 269.376 1087.78 268.947L1087.79 268.937C1088.3 268.374 1088.59 267.639 1088.59 266.877V189.777C1088.59 189.282 1088.47 188.793 1088.24 188.355C1088.01 187.916 1087.67 187.539 1087.27 187.257Z" fill="#3F3D56"/>
<path d="M1171.61 163.037C1171.27 162.756 1170.87 162.553 1170.44 162.444C1170.01 162.335 1169.56 162.323 1169.13 162.407C1169.11 162.407 1169.09 162.417 1169.07 162.417C1168.92 162.447 1168.76 162.477 1168.61 162.517C1167.57 162.727 1166.52 162.947 1165.48 163.177C1164.33 163.417 1163.19 163.667 1162.04 163.917C1161.08 164.127 1160.12 164.347 1159.16 164.567C1156.9 165.077 1154.63 165.597 1152.37 166.147C1147.76 167.247 1143.16 168.41 1138.58 169.637C1137.62 169.887 1136.65 170.147 1135.69 170.407C1135.6 170.429 1135.52 170.456 1135.44 170.487C1135.43 170.488 1135.42 170.491 1135.42 170.497C1134.83 170.718 1134.33 171.11 1133.98 171.623C1133.62 172.135 1133.43 172.743 1133.43 173.367V255.657C1133.43 256.106 1133.52 256.549 1133.71 256.955C1133.9 257.361 1134.18 257.721 1134.53 258.007C1134.76 258.205 1135.03 258.363 1135.32 258.477C1135.68 258.628 1136.08 258.706 1136.48 258.707C1136.66 258.705 1136.84 258.689 1137.02 258.657H1137.05C1138.03 258.467 1139.01 258.287 1139.99 258.107C1142.73 257.607 1145.48 257.12 1148.26 256.647C1149.85 256.367 1151.45 256.097 1153.05 255.837C1153.21 255.807 1153.37 255.777 1153.53 255.757C1156.29 255.297 1159.05 254.854 1161.83 254.427C1163.71 254.137 1165.6 253.847 1167.49 253.577C1168.37 253.437 1169.25 253.317 1170.13 253.187C1170.71 253.107 1171.26 252.856 1171.7 252.467C1172.03 252.181 1172.29 251.827 1172.47 251.43C1172.65 251.034 1172.75 250.603 1172.75 250.167V165.417C1172.75 164.96 1172.64 164.509 1172.45 164.097C1172.25 163.685 1171.96 163.323 1171.61 163.037Z" fill="#3F3D56"/>
<path d="M1255.96 152.617C1255.39 152.078 1254.64 151.774 1253.86 151.767H1253.71C1253.14 151.797 1252.56 151.817 1251.99 151.847C1251.77 151.857 1251.54 151.867 1251.32 151.877C1249.81 151.957 1248.3 152.037 1246.79 152.127C1245.18 152.217 1243.58 152.317 1241.98 152.427C1240.97 152.497 1239.97 152.567 1238.97 152.637C1238.31 152.687 1237.65 152.737 1236.98 152.787C1232.8 153.107 1228.62 153.477 1224.47 153.897C1223.08 154.037 1221.7 154.177 1220.32 154.327C1219.57 154.408 1218.87 154.765 1218.37 155.328C1217.86 155.891 1217.58 156.621 1217.59 157.377V244.567C1217.59 244.987 1217.67 245.402 1217.84 245.785C1218.01 246.169 1218.26 246.514 1218.57 246.797C1218.75 246.973 1218.96 247.124 1219.19 247.247C1219.64 247.49 1220.14 247.617 1220.65 247.617C1220.72 247.617 1220.8 247.607 1220.88 247.607C1221.27 247.577 1221.67 247.547 1222.06 247.517C1227.14 247.137 1232.26 246.797 1237.39 246.517C1242.92 246.207 1248.45 245.967 1253.95 245.787C1254.54 245.778 1255.12 245.59 1255.61 245.247C1256.01 244.965 1256.34 244.589 1256.57 244.152C1256.79 243.715 1256.91 243.229 1256.91 242.737V154.837C1256.91 154.422 1256.83 154.011 1256.66 153.629C1256.5 153.247 1256.26 152.903 1255.96 152.617Z" fill="#3F3D56"/>
<path d="M1338.37 154.757H1338.35C1338.22 154.737 1338.08 154.727 1337.95 154.717C1336.69 154.567 1335.43 154.427 1334.17 154.297C1332.51 154.117 1330.86 153.947 1329.2 153.787C1325.27 153.397 1321.34 153.057 1317.43 152.767C1316.44 152.687 1315.46 152.617 1314.48 152.557C1313.35 152.467 1312.22 152.397 1311.1 152.327C1309.94 152.247 1308.78 152.177 1307.62 152.117C1307.18 152.087 1306.75 152.067 1306.32 152.047C1305.86 152.017 1305.41 151.987 1304.96 151.967C1304.87 151.959 1304.78 151.955 1304.69 151.957C1303.94 151.979 1303.23 152.279 1302.7 152.797C1302.39 153.083 1302.15 153.429 1301.99 153.812C1301.82 154.196 1301.74 154.609 1301.74 155.027V242.737C1301.73 243.23 1301.85 243.717 1302.08 244.154C1302.31 244.592 1302.64 244.967 1303.05 245.247C1303.53 245.59 1304.11 245.778 1304.7 245.787C1310.2 245.967 1315.73 246.207 1321.26 246.517C1326.39 246.797 1331.51 247.137 1336.59 247.517C1336.98 247.547 1337.38 247.577 1337.77 247.607C1337.85 247.607 1337.92 247.617 1338 247.617C1338.51 247.617 1339.01 247.489 1339.46 247.247C1339.68 247.124 1339.89 246.973 1340.08 246.797C1340.39 246.512 1340.63 246.168 1340.8 245.784C1340.97 245.4 1341.06 244.986 1341.06 244.567V157.797C1341.05 157.05 1340.78 156.329 1340.29 155.77C1339.79 155.21 1339.11 154.85 1338.37 154.757Z" fill="#3F3D56"/>
<path d="M1423.2 171.227C1423.12 171.196 1423.04 171.169 1422.96 171.147C1422.09 170.907 1421.22 170.677 1420.35 170.447C1418.67 169.997 1416.98 169.557 1415.29 169.127C1413.7 168.707 1412.1 168.307 1410.5 167.907C1409.09 167.557 1407.68 167.207 1406.26 166.867C1404.87 166.527 1403.48 166.197 1402.08 165.877C1397.91 164.897 1393.74 163.97 1389.59 163.097C1389.56 163.089 1389.53 163.085 1389.5 163.087C1389.07 163.006 1388.62 163.021 1388.2 163.13C1387.77 163.239 1387.38 163.439 1387.04 163.717C1386.68 164.003 1386.39 164.365 1386.2 164.777C1386 165.189 1385.9 165.64 1385.9 166.097V250.167C1385.9 250.604 1385.99 251.036 1386.18 251.433C1386.36 251.83 1386.63 252.182 1386.96 252.467C1387.39 252.856 1387.94 253.106 1388.52 253.187C1388.78 253.227 1389.03 253.257 1389.29 253.297C1390.4 253.457 1391.51 253.617 1392.62 253.787C1396.79 254.407 1400.95 255.064 1405.12 255.757C1406.19 255.927 1407.26 256.107 1408.32 256.287C1410.61 256.677 1412.89 257.074 1415.16 257.477C1416.48 257.717 1417.79 257.957 1419.1 258.197C1419.93 258.347 1420.77 258.497 1421.6 258.657C1421.79 258.688 1421.98 258.705 1422.17 258.707C1422.57 258.707 1422.96 258.629 1423.33 258.477C1423.62 258.366 1423.88 258.207 1424.12 258.007C1424.46 257.72 1424.74 257.361 1424.93 256.955C1425.12 256.549 1425.22 256.105 1425.22 255.657V174.107C1425.22 173.478 1425.02 172.864 1424.66 172.349C1424.3 171.834 1423.79 171.442 1423.2 171.227Z" fill="#3F3D56"/>
<path d="M1507.57 200.737L1507.51 200.707C1504.52 199.427 1501.52 198.174 1498.52 196.947C1496.42 196.087 1494.33 195.237 1492.23 194.407C1491.41 194.067 1490.59 193.747 1489.76 193.427C1488.43 192.897 1487.09 192.377 1485.76 191.857C1484.66 191.427 1483.55 191.007 1482.45 190.587C1481.18 190.097 1479.91 189.627 1478.65 189.147C1477.15 188.587 1475.65 188.034 1474.16 187.487C1474.14 187.479 1474.12 187.476 1474.11 187.477C1473.65 187.314 1473.17 187.263 1472.69 187.329C1472.21 187.396 1471.76 187.577 1471.37 187.857C1470.96 188.139 1470.63 188.515 1470.4 188.952C1470.18 189.389 1470.06 189.874 1470.06 190.367V266.877C1470.06 267.512 1470.26 268.131 1470.63 268.647C1470.7 268.748 1470.77 268.845 1470.86 268.937L1470.87 268.947C1471.27 269.378 1471.79 269.684 1472.36 269.827C1472.93 269.967 1473.5 270.117 1474.07 270.267C1475.8 270.707 1477.53 271.157 1479.27 271.617C1480.74 271.997 1482.21 272.387 1483.68 272.787C1488.22 273.997 1492.76 275.257 1497.27 276.547C1500.02 277.337 1502.75 278.137 1505.48 278.947H1505.5C1505.77 279.026 1506.06 279.067 1506.35 279.067C1506.68 279.066 1507.02 279.009 1507.34 278.897C1507.62 278.796 1507.89 278.651 1508.14 278.467C1508.52 278.18 1508.83 277.807 1509.04 277.378C1509.26 276.949 1509.37 276.476 1509.37 275.997V203.527C1509.37 202.938 1509.2 202.361 1508.88 201.866C1508.56 201.371 1508.1 200.979 1507.57 200.737Z" fill="#3F3D56"/>
<path d="M1057.72 277.676C1070.75 286.451 1084.34 294.341 1098.05 301.996C1112.71 310.185 1127.52 318.096 1142.18 326.28C1156.93 334.513 1171.55 343.012 1185.65 352.321C1199.36 361.196 1212.33 371.177 1224.42 382.163C1235.86 392.76 1246.23 404.602 1254.38 417.937C1255.36 419.528 1256.3 421.137 1257.2 422.765C1258.14 424.451 1260.74 422.94 1259.79 421.251C1252.03 407.657 1242.36 395.241 1231.09 384.38C1219.3 373.028 1206.54 362.733 1192.94 353.615C1178.93 344.025 1164.33 335.335 1149.56 326.982C1134.83 318.654 1119.9 310.671 1105.1 302.482C1091.16 294.774 1077.29 286.896 1063.94 278.2C1062.36 277.174 1060.8 276.136 1059.24 275.086C1057.63 274.004 1056.13 276.602 1057.72 277.676H1057.72Z" fill="#3F3D56"/>
<path d="M1108.34 242.472C1114.58 256.532 1122.24 269.915 1131.22 282.41C1140.4 295.206 1150.22 307.532 1160.64 319.339C1171.07 331.35 1181.8 343.084 1192.31 355.028C1202.69 366.837 1212.87 378.853 1222.16 391.544C1231.39 403.896 1239.4 417.109 1246.09 430.999C1246.9 432.721 1247.68 434.456 1248.43 436.202C1249.2 437.969 1251.78 436.443 1251.02 434.688C1244.78 420.628 1237.12 407.246 1228.15 394.751C1218.97 381.954 1209.14 369.629 1198.72 357.821C1188.3 345.811 1177.56 334.076 1167.06 322.132C1156.67 310.324 1146.5 298.307 1137.2 285.617C1127.98 273.265 1119.96 260.052 1113.28 246.161C1112.47 244.439 1111.69 242.705 1110.93 240.958C1110.16 239.191 1107.58 240.717 1108.34 242.472Z" fill="#3F3D56"/>
<path d="M1475.06 260.362C1463.62 271.279 1451.5 281.466 1438.78 290.862C1425.58 300.797 1412.02 310.243 1398.53 319.776C1385.06 329.293 1371.64 338.894 1358.7 349.134C1346.22 358.815 1334.5 369.438 1323.65 380.91C1313.52 391.834 1304.43 403.865 1297.63 417.154C1296.81 418.752 1296.02 420.366 1295.27 421.997C1294.47 423.739 1297.06 425.265 1297.86 423.512C1304.2 410.155 1312.44 397.792 1322.34 386.814C1332.81 375.205 1344.22 364.482 1356.46 354.755C1369.17 344.435 1382.45 334.835 1395.8 325.366C1409.3 315.791 1422.91 306.36 1436.21 296.501C1449.05 287.159 1461.37 277.103 1473.08 266.38C1474.46 265.096 1475.83 263.796 1477.18 262.483C1478.57 261.135 1476.44 259.015 1475.06 260.362Z" fill="#3F3D56"/>
<path d="M1444.14 232.747C1437.9 246.807 1430.23 260.189 1421.26 272.684C1412.07 285.476 1402.24 297.792 1391.8 309.585C1381.37 321.588 1370.63 333.321 1360.13 345.273C1349.76 357.088 1339.61 369.128 1330.31 381.818C1321.09 394.17 1313.08 407.383 1306.39 421.274C1305.58 422.996 1304.8 424.73 1304.04 426.477C1303.28 428.23 1305.87 429.76 1306.63 427.991C1312.87 413.931 1320.54 400.548 1329.51 388.053C1338.7 375.262 1348.53 362.945 1358.97 351.152C1369.41 339.15 1380.15 327.416 1390.64 315.465C1401.01 303.649 1411.16 291.61 1420.46 278.919C1429.68 266.567 1437.69 253.354 1444.38 239.464C1445.19 237.742 1445.97 236.007 1446.73 234.261C1447.49 232.507 1444.9 230.978 1444.14 232.747V232.747Z" fill="#3F3D56"/>
<path d="M1222.67 613.641L1224.56 620.2L1250.76 616.029L1247.97 606.347L1222.67 613.641Z" fill="#FFB6B6"/>
<path d="M1215.76 615.382L1221.57 635.554L1221.83 635.48C1223.91 634.88 1225.67 633.477 1226.72 631.58C1227.77 629.684 1228.02 627.448 1227.42 625.366L1227.42 625.365L1229.15 620.875L1224.37 614.806L1223.87 613.045L1215.76 615.382Z" fill="#2F2E41"/>
<path d="M1335.17 645.861L1341.83 644.364L1339.23 617.96L1329.4 620.17L1335.17 645.861Z" fill="#FFB6B6"/>
<path d="M1334.56 653.341L1355.04 648.738L1354.98 648.479C1354.5 646.365 1353.21 644.526 1351.38 643.367C1349.55 642.208 1347.33 641.823 1345.22 642.298L1345.22 642.299L1340.84 640.301L1334.49 644.708L1332.71 645.11L1334.56 653.341Z" fill="#2F2E41"/>
<path d="M1314.78 504.447L1344.95 628.207L1330.19 629.514L1313.84 588.096L1288.61 539.347L1290.89 594.988L1243.94 622.445L1232.91 607.331L1270.44 587.145L1254.05 513.507L1258.41 504.447L1314.78 504.447Z" fill="#2F2E41"/>
<path d="M1254.35 515.284C1249.46 508.439 1258.51 497.168 1259.62 494.784C1258.3 494.356 1257.17 493.486 1256.43 492.32C1255.68 491.154 1255.36 489.765 1255.52 488.39L1256 484.326L1256.5 480.34L1252.93 476.769L1252.92 476.68L1250.86 458.701L1247.88 446.76C1246.75 442.246 1246.85 437.514 1248.15 433.049C1249.46 428.584 1251.93 424.547 1255.32 421.354L1262.22 420.257L1270.61 412.171H1284.15L1288.79 416.604C1297.45 418.124 1298.94 417.628 1306.38 426.557L1303 454.318L1302.16 458.137L1302.16 463.317L1304.3 465.7C1305.08 466.559 1305.64 467.586 1305.94 468.699C1306.25 469.813 1306.29 470.983 1306.06 472.115L1305.78 473.525C1307.99 474.473 1310.1 491.317 1310.61 493.669L1311.36 497.184C1312 498.034 1316.26 503.705 1316.26 505.255C1316.26 505.488 1316.08 505.713 1315.72 505.963C1312.82 507.925 1287.44 513.121 1280.35 510.284C1272.8 507.264 1254.35 515.284 1254.35 515.284Z" fill="#E6E6E6"/>
<path d="M1227.23 432.913L1233.19 440.191C1235.42 442.93 1238.18 445.199 1241.3 446.868C1244.42 448.537 1247.84 449.572 1251.36 449.915C1253.55 450.12 1255.74 449.709 1257.7 448.731C1259.66 447.753 1261.31 446.246 1262.46 444.38C1264 441.84 1264.52 438.81 1263.92 435.901C1263.31 432.993 1261.62 430.424 1259.19 428.713C1251.82 423.532 1247.8 415.503 1242 418.106L1240.76 415.044L1224.41 401.841L1211.02 413.333L1227.23 432.913Z" fill="#E6E6E6"/>
<path d="M1342.42 408.829L1329.47 396.848L1319.36 403.283L1318 406.296C1312.31 403.48 1301.28 417.506 1293.72 422.411C1291.23 424.03 1289.44 426.535 1288.73 429.419C1288.01 432.303 1288.42 435.35 1289.87 437.946C1290.95 439.853 1292.54 441.42 1294.46 442.471C1296.39 443.521 1298.57 444.012 1300.75 443.889C1304.29 443.677 1307.74 442.769 1310.92 441.217C1314.1 439.665 1316.94 437.5 1319.28 434.846L1325.5 427.794L1342.42 408.829Z" fill="#E6E6E6"/>
<path d="M1276.47 408.265C1284.77 408.265 1291.5 401.536 1291.5 393.235C1291.5 384.934 1284.77 378.205 1276.47 378.205C1268.17 378.205 1261.44 384.934 1261.44 393.235C1261.44 401.536 1268.17 408.265 1276.47 408.265Z" fill="#FFB6B6"/>
<path d="M1265.56 403.829C1265.43 403.714 1265.31 403.591 1265.18 403.473C1265.17 403.485 1265.17 403.497 1265.17 403.509L1265.56 403.829Z" fill="#2F2E41"/>
<path d="M1290.58 387.597C1290.5 387.547 1290.43 387.497 1290.35 387.457C1289.36 386.68 1288.13 386.267 1286.88 386.287C1285.68 386.437 1284.69 387.297 1283.54 387.637C1281.07 388.357 1278.58 386.597 1276.02 386.417H1275.96C1275.14 386.366 1274.32 386.476 1273.55 386.74C1272.78 387.005 1272.06 387.419 1271.45 387.96C1270.84 388.5 1270.34 389.156 1269.98 389.89C1269.62 390.624 1269.41 391.421 1269.36 392.237C1269.31 393.067 1269.42 393.897 1269.32 394.717C1269.29 395.133 1269.16 395.535 1268.94 395.889C1268.72 396.243 1268.42 396.538 1268.06 396.747C1266.93 397.257 1265.41 396.497 1264.45 397.287C1263.6 397.997 1263.91 399.377 1264.42 400.367C1265.01 401.201 1265.31 402.214 1265.25 403.237C1265.23 403.318 1265.21 403.398 1265.18 403.477C1262.86 401.322 1261.03 398.705 1259.79 395.796C1258.55 392.886 1257.93 389.749 1257.98 386.587C1257.94 385.193 1258.23 383.809 1258.82 382.547C1259.12 381.918 1259.56 381.372 1260.12 380.958C1260.68 380.545 1261.34 380.276 1262.03 380.177C1263.21 380.077 1264.43 380.607 1265.55 380.227C1266.93 379.767 1267.51 378.177 1268.23 376.897C1269.12 375.371 1270.41 374.119 1271.96 373.277C1273.51 372.436 1275.26 372.038 1277.03 372.127C1278.3 372.251 1279.55 372.503 1280.77 372.877L1283.15 373.527C1284.05 373.741 1284.94 374.052 1285.78 374.457C1287.01 375.163 1288.04 376.163 1288.79 377.367C1289.42 378.336 1289.92 379.385 1290.28 380.487C1288.96 380.555 1287.64 380.509 1286.33 380.347C1287.83 381.277 1289.34 382.207 1290.84 383.137C1291.02 384.627 1290.93 386.137 1290.58 387.597Z" fill="#2F2E41"/>
<path d="M1527.62 163.864C1554.92 163.864 1577.05 141.733 1577.05 114.432C1577.05 87.1315 1554.92 65 1527.62 65C1500.32 65 1478.18 87.1315 1478.18 114.432C1478.18 141.733 1500.32 163.864 1527.62 163.864Z" fill="#FF6584"/>
<path d="M1638.26 91.027C1635.4 81.447 1627.32 75.197 1617.56 73.827C1617.46 73.817 1617.35 73.837 1617.25 73.827C1617.11 73.7832 1616.97 73.7497 1616.83 73.727C1603 72.0451 1589.01 75.0902 1577.14 82.367C1574.42 84.0652 1571.58 85.5561 1568.64 86.827C1559.21 90.803 1549.12 92.987 1538.89 93.267C1538.81 93.267 1538.73 93.277 1538.65 93.277C1533.64 93.61 1528.85 95.4794 1524.94 98.6306C1521.03 101.782 1518.19 106.062 1516.8 110.887C1516.65 111.477 1516.69 112.099 1516.92 112.662C1517.15 113.224 1517.56 113.699 1518.08 114.017C1519.57 115.282 1521.34 116.183 1523.24 116.647C1527.35 117.517 1531.47 118.314 1535.6 119.037C1543.67 120.447 1551.78 121.587 1559.93 122.457C1565.33 123.037 1570.74 123.49 1576.16 123.817C1587.34 124.517 1598.57 124.687 1609.77 124.337C1615.31 124.167 1620.65 123.987 1625.73 121.537C1629.42 119.715 1632.57 116.961 1634.88 113.547C1637.05 110.267 1638.48 106.552 1639.06 102.661C1639.65 98.771 1639.37 94.8 1638.26 91.027Z" fill="#F2F2F2"/>
<path d="M1444.6 459.277C1442.54 452.377 1436.72 447.867 1429.68 446.877C1429.6 446.867 1429.53 446.887 1429.45 446.877C1429.35 446.848 1429.25 446.824 1429.15 446.807C1419.18 445.589 1409.09 447.785 1400.53 453.037C1392.28 458.187 1382.67 460.517 1372.95 460.897C1372.89 460.896 1372.83 460.899 1372.78 460.907C1369.17 461.148 1365.72 462.495 1362.9 464.766C1360.08 467.036 1358.03 470.12 1357.03 473.597C1356.92 474.023 1356.95 474.471 1357.12 474.878C1357.28 475.284 1357.57 475.628 1357.95 475.857C1359.02 476.771 1360.3 477.419 1361.67 477.747C1364.63 478.377 1367.61 478.947 1370.59 479.477C1376.4 480.487 1382.26 481.307 1388.13 481.937C1400.06 483.22 1412.06 483.674 1424.06 483.297C1428.05 483.177 1431.9 483.047 1435.56 481.277C1438.22 479.964 1440.5 477.979 1442.17 475.517C1443.73 473.151 1444.76 470.471 1445.18 467.666C1445.6 464.861 1445.4 461.997 1444.6 459.277Z" fill="#F2F2F2"/>
<path d="M1128.6 377.277C1126.54 370.377 1120.72 365.867 1113.68 364.877C1113.6 364.867 1113.53 364.887 1113.45 364.877C1113.35 364.848 1113.25 364.824 1113.15 364.807C1103.18 363.589 1093.09 365.785 1084.53 371.037C1076.28 376.187 1066.67 378.517 1056.95 378.897C1056.89 378.896 1056.83 378.899 1056.78 378.907C1053.17 379.148 1049.72 380.495 1046.9 382.766C1044.08 385.036 1042.03 388.12 1041.03 391.597C1040.92 392.023 1040.95 392.471 1041.12 392.878C1041.28 393.284 1041.57 393.628 1041.95 393.857C1043.02 394.771 1044.3 395.419 1045.67 395.747C1048.63 396.377 1051.61 396.947 1054.59 397.477C1060.4 398.487 1066.26 399.307 1072.13 399.937C1084.06 401.22 1096.06 401.674 1108.06 401.297C1112.05 401.177 1115.9 401.047 1119.56 399.277C1122.22 397.964 1124.5 395.979 1126.17 393.517C1127.73 391.151 1128.76 388.471 1129.18 385.666C1129.6 382.861 1129.4 379.997 1128.6 377.277Z" fill="#F2F2F2"/>
<path d="M1211.52 805.004C1214.9 808.714 1218.18 812.504 1221.36 816.374C1174.08 807.916 1128.86 790.468 1088.15 764.974C1087.3 764.444 1086.46 763.914 1085.62 763.374C1062.53 748.662 1041.09 731.492 1021.68 712.164C1025.08 708.974 1027.18 707.074 1027.18 707.074C1074.63 656.114 1079.95 638.174 1127.4 587.214C1143.18 651.154 1209.53 695.574 1244.33 751.484C1234.19 758.565 1223.09 764.171 1211.36 768.134C1211.28 768.224 1211.2 768.324 1211.12 768.414C1206.71 773.508 1204.31 780.043 1204.38 786.785C1204.46 793.527 1207 800.008 1211.52 805.004Z" fill="#F2F2F2"/>
<path d="M1620.5 624.864C1592.09 676.965 1551.86 721.684 1503.04 755.434C1502 756.154 1500.96 756.874 1499.91 757.584C1465.34 780.993 1427.1 798.482 1386.78 809.334C1384.85 807.844 1382.67 806.691 1380.35 805.924V805.904C1382.95 801.044 1385.55 796.184 1388.15 791.324C1379.17 800.484 1363.51 802.054 1352.89 794.874C1354.64 790.931 1357.13 787.362 1360.23 784.364C1357.63 785.554 1353.59 783.834 1352.47 780.834C1351.06 777.084 1352.66 772.934 1354.34 769.294C1372.87 729.214 1433.58 664.324 1434.53 663.314C1433.88 663.714 1406.16 681.124 1390.08 679.834C1389.26 674.914 1367.93 668.904 1365.55 666.404C1375.24 644.614 1420.18 604.074 1420.18 604.074C1467.63 553.114 1472.95 535.174 1520.4 484.214C1533.9 538.914 1584.4 579.324 1620.5 624.864Z" fill="#F2F2F2"/>
<g opacity="0.2">
<path d="M1016 263.051C1016.3 262.66 1016.6 262.284 1016.91 261.898L1016.92 261.745L1016 263.051Z" fill="black"/>
<path d="M1529.36 267.174C1527.71 271.118 1524.81 274.417 1521.12 276.574C1517.42 278.731 1513.12 279.629 1508.87 279.134C1507.77 279.001 1506.68 278.777 1505.61 278.464C1493.92 274.984 1482.24 271.784 1470.55 268.864C1455.27 265.024 1439.99 261.648 1424.71 258.734C1411.94 256.294 1399.17 254.178 1386.4 252.384C1371.11 250.234 1355.83 248.548 1340.55 247.324C1327.78 246.294 1315.01 245.591 1302.23 245.214C1286.95 244.744 1271.68 244.744 1256.4 245.214C1243.63 245.594 1230.86 246.298 1218.08 247.324C1202.8 248.544 1187.52 250.231 1172.24 252.384C1159.47 254.184 1146.7 256.301 1133.92 258.734C1118.64 261.644 1103.36 265.021 1088.08 268.864C1076.39 271.794 1064.71 274.994 1053.03 278.464C1051.97 278.777 1050.88 279.001 1049.77 279.134C1047.01 279.458 1044.2 279.192 1041.55 278.355C1038.89 277.517 1036.44 276.126 1034.36 274.274C1032.28 272.421 1030.61 270.149 1029.47 267.607C1028.33 265.065 1027.74 262.31 1027.74 259.524V250.284C1050.29 229.894 1082.19 220.444 1112.95 217.224C1149.53 213.394 1186.7 216.664 1223.08 211.234C1252.74 206.804 1282.21 196.594 1311.99 200.144C1337.94 203.224 1361.59 216.524 1387.18 221.844C1419.28 228.514 1453.17 222.384 1484.98 230.314C1497.45 233.414 1509.67 238.864 1518.58 248.114C1523.75 253.442 1527.46 260.004 1529.36 267.174Z" fill="black"/>
</g>
<path d="M1278.13 475.709C1288.74 475.709 1297.34 467.108 1297.34 456.497C1297.34 445.886 1288.74 437.284 1278.13 437.284C1267.51 437.284 1258.91 445.886 1258.91 456.497C1258.91 467.108 1267.51 475.709 1278.13 475.709Z" fill="#EEF5FA"/>
<path d="M1275.51 466.496C1275.17 466.496 1274.85 466.419 1274.55 466.27C1274.25 466.122 1273.99 465.906 1273.8 465.641L1268.55 458.652C1268.39 458.428 1268.26 458.172 1268.19 457.9C1268.12 457.628 1268.11 457.345 1268.15 457.066C1268.18 456.788 1268.28 456.52 1268.42 456.278C1268.56 456.036 1268.75 455.825 1268.98 455.657C1269.2 455.488 1269.46 455.365 1269.73 455.296C1270 455.226 1270.29 455.211 1270.57 455.251C1270.84 455.291 1271.11 455.386 1271.35 455.529C1271.59 455.673 1271.81 455.863 1271.97 456.088L1275.4 460.66L1284.21 447.449C1284.52 446.977 1285.01 446.65 1285.57 446.539C1286.13 446.427 1286.7 446.542 1287.17 446.856C1287.65 447.17 1287.97 447.659 1288.08 448.215C1288.2 448.771 1288.08 449.348 1287.77 449.82L1277.28 465.544C1277.09 465.829 1276.84 466.063 1276.54 466.229C1276.24 466.394 1275.91 466.486 1275.56 466.495L1275.51 466.496Z" fill="white"/>
<path d="M1514.35 568.644C1513.44 583.594 1512.54 598.548 1511.63 613.504C1510.03 639.924 1508.43 666.348 1506.83 692.774C1505.57 713.664 1504.31 734.551 1503.04 755.434C1502 756.154 1500.96 756.874 1499.91 757.584C1500.52 747.614 1501.13 737.644 1501.72 727.674C1503.32 701.244 1504.92 674.821 1506.52 648.404C1508.13 621.814 1509.74 595.228 1511.35 568.644C1511.46 566.714 1514.46 566.714 1514.35 568.644Z" fill="white"/>
<path d="M1415.91 642.297L1468.78 597.721L1483.61 585.214C1485.09 583.968 1482.96 581.855 1481.49 583.092L1428.62 627.669L1413.79 640.176C1412.31 641.422 1414.44 643.535 1415.91 642.297Z" fill="white"/>
<path d="M1422.66 726.14L1461.21 692.124C1462.66 690.844 1460.53 688.729 1459.09 690.003L1420.54 724.019C1419.09 725.299 1421.22 727.414 1422.66 726.14Z" fill="white"/>
<path d="M1051.66 711.14L1090.21 677.124C1091.66 675.844 1089.53 673.729 1088.09 675.003L1049.54 709.019C1048.09 710.299 1050.22 712.414 1051.66 711.14Z" fill="white"/>
<path d="M1548.58 613.059C1553.64 612.844 1558.68 613.934 1563.19 616.225C1567.71 618.515 1571.56 621.93 1574.38 626.139C1575.43 627.748 1578.03 626.246 1576.97 624.625C1573.89 619.967 1569.65 616.18 1564.68 613.629C1559.71 611.078 1554.17 609.848 1548.58 610.059C1546.66 610.149 1546.65 613.15 1548.58 613.059Z" fill="white"/>
<path d="M1128.47 669.333C1154.12 681.542 1174.67 702.379 1186.51 728.202C1187.32 729.955 1189.9 728.432 1189.1 726.688C1179.69 706.346 1164.96 688.919 1146.47 676.24C1141.23 672.646 1135.72 669.47 1129.99 666.742C1128.25 665.917 1126.73 668.502 1128.47 669.333H1128.47Z" fill="white"/>
<path d="M1126.54 648.474C1124.48 659.924 1121.97 671.281 1119 682.544C1113.76 702.436 1107.13 721.935 1099.14 740.894C1095.72 749.034 1092.06 757.061 1088.15 764.974C1087.3 764.444 1086.46 763.914 1085.62 763.374C1094.56 745.208 1102.23 726.443 1108.56 707.214C1114.98 687.75 1120.02 667.857 1123.64 647.684C1123.98 645.784 1126.88 646.594 1126.54 648.474Z" fill="white"/>
<path d="M1154.65 512.342C1162.7 512.342 1169.22 505.821 1169.22 497.777C1169.22 489.734 1162.7 483.213 1154.65 483.213C1146.61 483.213 1140.09 489.734 1140.09 497.777C1140.09 505.821 1146.61 512.342 1154.65 512.342Z" fill="#E6E6E6"/>
<path d="M1152.67 505.357C1152.42 505.357 1152.17 505.299 1151.94 505.186C1151.72 505.074 1151.52 504.91 1151.37 504.709L1147.4 499.411C1147.14 499.067 1147.03 498.635 1147.09 498.21C1147.15 497.785 1147.38 497.401 1147.72 497.143C1148.07 496.885 1148.5 496.775 1148.92 496.835C1149.35 496.896 1149.73 497.123 1149.99 497.467L1152.59 500.933L1159.27 490.918C1159.38 490.74 1159.54 490.587 1159.71 490.468C1159.89 490.348 1160.09 490.265 1160.3 490.223C1160.51 490.18 1160.72 490.18 1160.93 490.221C1161.14 490.262 1161.34 490.344 1161.52 490.463C1161.69 490.581 1161.85 490.733 1161.97 490.911C1162.08 491.088 1162.17 491.287 1162.21 491.497C1162.25 491.706 1162.25 491.921 1162.21 492.131C1162.16 492.34 1162.08 492.539 1161.96 492.716L1154.02 504.636C1153.87 504.851 1153.68 505.029 1153.45 505.155C1153.23 505.28 1152.97 505.349 1152.71 505.357L1152.67 505.357Z" fill="white"/>
<path d="M1182.7 512.342C1190.75 512.342 1197.27 505.821 1197.27 497.777C1197.27 489.734 1190.75 483.213 1182.7 483.213C1174.66 483.213 1168.14 489.734 1168.14 497.777C1168.14 505.821 1174.66 512.342 1182.7 512.342Z" fill="#E6E6E6"/>
<path d="M1180.72 505.357C1180.46 505.357 1180.22 505.299 1179.99 505.186C1179.77 505.074 1179.57 504.91 1179.42 504.709L1175.45 499.411C1175.19 499.067 1175.08 498.635 1175.14 498.21C1175.2 497.785 1175.43 497.401 1175.77 497.143C1176.11 496.885 1176.55 496.775 1176.97 496.835C1177.4 496.896 1177.78 497.123 1178.04 497.467L1180.64 500.933L1187.32 490.918C1187.43 490.74 1187.58 490.587 1187.76 490.468C1187.94 490.348 1188.14 490.265 1188.35 490.223C1188.56 490.18 1188.77 490.18 1188.98 490.221C1189.19 490.262 1189.39 490.344 1189.57 490.463C1189.74 490.581 1189.9 490.733 1190.01 490.911C1190.13 491.088 1190.22 491.287 1190.26 491.497C1190.3 491.706 1190.3 491.921 1190.26 492.131C1190.21 492.34 1190.13 492.539 1190.01 492.716L1182.06 504.636C1181.92 504.851 1181.73 505.029 1181.5 505.155C1181.27 505.28 1181.02 505.349 1180.76 505.357L1180.72 505.357Z" fill="white"/>
<path d="M1168.3 488.842C1176.34 488.842 1182.86 482.321 1182.86 474.277C1182.86 466.234 1176.34 459.713 1168.3 459.713C1160.26 459.713 1153.74 466.234 1153.74 474.277C1153.74 482.321 1160.26 488.842 1168.3 488.842Z" fill="#E6E6E6"/>
<path d="M1166.31 481.858C1166.06 481.858 1165.81 481.799 1165.59 481.687C1165.36 481.574 1165.17 481.411 1165.02 481.21L1161.04 475.912C1160.79 475.568 1160.68 475.136 1160.74 474.71C1160.8 474.285 1161.02 473.901 1161.37 473.644C1161.71 473.386 1162.14 473.275 1162.57 473.336C1162.99 473.397 1163.38 473.624 1163.64 473.968L1166.24 477.433L1172.91 467.419C1173.15 467.063 1173.52 466.817 1173.94 466.734C1174.36 466.651 1174.8 466.738 1175.15 466.976C1175.51 467.213 1175.76 467.582 1175.84 468.002C1175.93 468.422 1175.84 468.858 1175.61 469.216L1167.66 481.136C1167.52 481.352 1167.32 481.53 1167.1 481.655C1166.87 481.781 1166.62 481.85 1166.36 481.857L1166.31 481.858Z" fill="white"/>
<path d="M1210.41 475.274L1208.26 475.489L1197.65 503.538H1140.04L1129.42 475.489L1127.27 475.274C1126.59 475.205 1125.89 475.281 1125.24 475.497C1124.58 475.713 1123.98 476.063 1123.47 476.526C1122.96 476.989 1122.55 477.554 1122.27 478.185C1121.99 478.816 1121.84 479.498 1121.84 480.188V543.766C1121.84 546.248 1122.33 548.706 1123.28 550.999C1124.23 553.292 1125.62 555.376 1127.38 557.131C1129.13 558.886 1131.22 560.278 1133.51 561.228C1135.8 562.178 1138.26 562.667 1140.74 562.667H1196.94C1199.43 562.667 1201.88 562.178 1204.18 561.228C1206.47 560.278 1208.55 558.886 1210.31 557.131C1212.06 555.376 1213.46 553.292 1214.41 550.999C1215.35 548.706 1215.84 546.248 1215.84 543.766V480.188C1215.84 479.498 1215.7 478.816 1215.42 478.185C1215.14 477.554 1214.73 476.989 1214.22 476.526C1213.71 476.063 1213.1 475.713 1212.45 475.497C1211.79 475.281 1211.1 475.205 1210.41 475.274Z" fill="#F2F2F2"/>
<path d="M1291.62 411.786C1290.91 409.695 1288.17 409.3 1285.96 409.306C1281.04 409.321 1276.12 409.53 1271.2 409.934L1271.7 409.365C1270.39 408.815 1268.96 408.653 1267.56 408.901C1266.21 409.286 1265.09 410.842 1265.7 412.11C1266.16 413.063 1267.45 413.668 1267.36 414.722C1267.2 416.506 1263.75 415.913 1263.21 417.621C1263.14 417.961 1263.17 418.314 1263.31 418.634C1263.44 418.954 1263.67 419.224 1263.97 419.407C1264.56 419.761 1265.24 419.974 1265.93 420.029C1273.24 421.089 1280.69 420.128 1287.49 417.248C1288.68 416.816 1289.77 416.139 1290.68 415.261C1291.13 414.816 1291.45 414.26 1291.62 413.65C1291.78 413.04 1291.78 412.397 1291.62 411.786Z" fill="#E6E6E6"/>
</g>
<defs>
<clipPath id="clip0_877_1137">
<rect width="623.352" height="751.374" fill="white" transform="translate(1016 65)"/>
</clipPath>
</defs>
</svg>
