<svg xmlns="http://www.w3.org/2000/svg" xmlns:xlink="http://www.w3.org/1999/xlink" width="500" zoomAndPan="magnify" viewBox="0 0 375 374.999991" height="500" preserveAspectRatio="xMidYMid meet" version="1.0"><defs><g/><clipPath id="becebb49c0"><path d="M 161 122.558594 L 220 122.558594 L 220 207 L 161 207 Z M 161 122.558594 " clip-rule="nonzero"/></clipPath><clipPath id="ee0153f0a5"><path d="M 112 168 L 268.738281 168 L 268.738281 266.558594 L 112 266.558594 Z M 112 168 " clip-rule="nonzero"/></clipPath><clipPath id="33b1909d19"><path d="M 105.988281 206 L 257 206 L 257 266.558594 L 105.988281 266.558594 Z M 105.988281 206 " clip-rule="nonzero"/></clipPath></defs><g fill="#12465a" fill-opacity="1"><g transform="translate(91.398589, 157.417519)"><g><path d="M 0.632812 -0.996094 L 4.65625 -7.339844 L -2.410156 -11.820312 L 0.773438 -16.839844 L 7.839844 -12.359375 L 11.878906 -18.726562 L -7.882812 -31.261719 L -11.921875 -24.894531 L -4.871094 -20.421875 L -8.054688 -15.398438 L -15.109375 -19.871094 L -19.128906 -13.53125 Z M 0.632812 -0.996094 "/></g></g></g><g fill="#12465a" fill-opacity="1"><g transform="translate(104.5604, 136.762507)"><g><path d="M 11.871094 -11.492188 L 17.773438 -17.203125 L -4.230469 -28.476562 L -10.496094 -22.410156 L 0.0546875 -0.0546875 L 5.714844 -5.53125 L 3.894531 -8.824219 L 8.640625 -13.417969 Z M 0.808594 -14.414062 L -2.003906 -19.519531 L -1.859375 -19.660156 L 3.152344 -16.683594 Z M 0.808594 -14.414062 "/></g></g></g><g fill="#12465a" fill-opacity="1"><g transform="translate(123.261488, 118.847903)"><g><path d="M 2.101562 -28.296875 L 8.335938 -17.582031 L -4.097656 -24.691406 L -10.746094 -20.824219 L 1.019531 -0.59375 L 7.511719 -4.371094 L 1.683594 -14.171875 L 13.722656 -7.984375 L 20.335938 -11.828125 L 8.566406 -32.058594 Z M 2.101562 -28.296875 "/></g></g></g><g fill="#12465a" fill-opacity="1"><g transform="translate(145.725274, 106.070071)"><g><path d="M 1.128906 -0.339844 L 9.433594 -2.851562 C 17.0625 -5.160156 19.992188 -10.929688 17.953125 -17.675781 C 15.722656 -25.042969 9.40625 -27.292969 2.613281 -25.238281 L -5.644531 -22.742188 Z M 6.335938 -9.074219 L 3.53125 -18.34375 L 4.515625 -18.640625 C 7.785156 -19.628906 9.824219 -18.613281 10.785156 -15.429688 C 11.746094 -12.246094 10.441406 -10.316406 7.316406 -9.371094 Z M 6.335938 -9.074219 "/></g></g></g><g fill="#12465a" fill-opacity="1"><g transform="translate(168.647019, 99.228015)"><g><path d="M 8.015625 -0.523438 L 15.492188 -1.011719 L 14.890625 -10.246094 L 22.058594 -24.90625 L 13.265625 -24.332031 L 10.691406 -17.160156 L 7.207031 -23.9375 L -1.554688 -23.367188 L 7.414062 -9.730469 Z M 8.015625 -0.523438 "/></g></g></g><g fill="#12465a" fill-opacity="1"><g transform="translate(193.878758, 98.345998)"><g/></g></g><g fill="#12465a" fill-opacity="1"><g transform="translate(204.279376, 98.944554)"><g><path d="M 1.136719 0.3125 L 8.378906 2.308594 L 10.597656 -5.761719 L 16.332031 -4.183594 L 14.109375 3.886719 L 21.382812 5.886719 L 27.59375 -16.675781 L 20.324219 -18.675781 L 18.105469 -10.625 L 12.375 -12.203125 L 14.589844 -20.257812 L 7.351562 -22.25 Z M 1.136719 0.3125 "/></g></g></g><g fill="#12465a" fill-opacity="1"><g transform="translate(227.871404, 105.393935)"><g><path d="M 11.179688 6.980469 C 17.433594 10.492188 24.875 8.535156 28.304688 2.425781 C 31.710938 -3.640625 29.496094 -11 23.242188 -14.511719 C 16.960938 -18.035156 9.527344 -16.09375 6.121094 -10.027344 C 2.691406 -3.917969 4.898438 3.453125 11.179688 6.980469 Z M 14.539062 0.992188 C 11.960938 -0.457031 11.125 -3.597656 12.660156 -6.335938 C 14.175781 -9.035156 17.304688 -9.972656 19.882812 -8.523438 C 22.449219 -7.082031 23.265625 -3.933594 21.75 -1.234375 C 20.210938 1.503906 17.105469 2.433594 14.539062 0.992188 Z M 14.539062 0.992188 "/></g></g></g><g fill="#12465a" fill-opacity="1"><g transform="translate(251.686783, 118.489591)"><g><path d="M 36.570312 3.648438 L 31.1875 -1.785156 L 18.230469 4.195312 L 18.113281 4.078125 L 24.203125 -8.824219 L 18.820312 -14.257812 L 0.421875 0.425781 L 5.761719 5.8125 L 13.777344 -0.992188 L 13.929688 -0.839844 L 9.484375 9.566406 L 12.796875 12.90625 L 23.003906 8.3125 L 23.15625 8.464844 L 16.402344 16.542969 L 21.753906 21.941406 Z M 36.570312 3.648438 "/></g></g></g><g fill="#12465a" fill-opacity="1"><g transform="translate(273.873143, 142.222175)"><g><path d="M 0.605469 1.011719 L 8.699219 14.496094 L 14.429688 11.058594 L 10.199219 4.011719 L 12.121094 2.863281 L 15.667969 8.773438 L 20.425781 5.921875 L 16.875 0.0078125 L 18.808594 -1.152344 L 22.957031 5.761719 L 28.6875 2.320312 L 20.675781 -11.03125 Z M 0.605469 1.011719 "/></g></g></g><path fill="#66869f" d="M 264.210938 255.394531 L 211.253906 255.394531 L 229.871094 168.761719 L 237.75 168.761719 L 264.210938 206.273438 Z M 264.210938 255.394531 " fill-opacity="1" fill-rule="nonzero"/><path fill="#faf2e9" d="M 193.578125 192.457031 L 202.433594 221.464844 C 202.433594 221.464844 200.804688 224.300781 194.816406 226.125 C 188.828125 227.949219 185.898438 226.515625 185.898438 226.515625 L 177.042969 197.507812 L 173.855469 176.777344 C 172.648438 176.972656 171.445312 176.289062 171.054688 175.082031 C 170.664062 173.78125 171.378906 172.378906 172.714844 171.988281 L 173.105469 171.855469 C 173.105469 171.855469 178.085938 170.324219 177.824219 170.421875 C 177.53125 170.519531 182.542969 168.988281 182.542969 168.988281 L 182.933594 168.859375 C 184.238281 168.464844 185.636719 169.183594 186.027344 170.519531 C 186.386719 171.726562 185.800781 172.996094 184.660156 173.484375 Z M 256.335938 206.308594 L 229.871094 168.792969 L 203.410156 206.308594 L 203.410156 255.425781 L 256.367188 255.425781 L 256.367188 206.308594 Z M 256.335938 206.308594 " fill-opacity="1" fill-rule="nonzero"/><g clip-path="url(#becebb49c0)"><path fill="#66869f" d="M 171.609375 133.886719 L 170.304688 138.21875 L 179.941406 169.804688 L 175.675781 171.105469 L 166.042969 139.523438 L 162.558594 136.65625 L 161.257812 123.878906 L 165.554688 122.574219 Z M 192.765625 152.496094 C 192.765625 152.527344 192.796875 152.527344 192.796875 152.5625 C 193.027344 152.917969 193.285156 153.3125 193.546875 153.636719 C 195.792969 157.15625 195.957031 160.1875 195.371094 164.328125 C 194.785156 168.367188 190.453125 198.972656 189.445312 206.308594 L 203.117188 206.308594 C 204.484375 196.660156 208.257812 170 208.78125 166.25 C 209.332031 162.242188 210.277344 159.4375 213.207031 156.765625 C 217.242188 153.898438 219.683594 149.007812 219.164062 143.726562 C 218.609375 138.089844 214.867188 133.527344 209.886719 131.703125 L 210.832031 141.609375 C 211.089844 144.445312 209.039062 146.988281 206.175781 147.25 L 203.117188 147.542969 C 200.285156 147.800781 197.746094 145.75 197.484375 142.882812 L 196.574219 133.527344 C 192.636719 136.394531 190.226562 141.1875 190.714844 146.402344 C 190.910156 148.585938 191.625 150.671875 192.765625 152.496094 Z M 192.765625 152.496094 " fill-opacity="1" fill-rule="nonzero"/></g><path fill="#12465a" d="M 231.304688 193.988281 L 149.148438 193.988281 L 149.148438 181.179688 L 231.304688 181.179688 C 231.304688 181.179688 232.542969 181.765625 232.542969 187.597656 C 232.542969 193.433594 231.304688 193.988281 231.304688 193.988281 Z M 231.304688 193.988281 " fill-opacity="1" fill-rule="nonzero"/><path fill="#66869f" d="M 173.527344 255.394531 L 120.570312 255.394531 L 139.1875 168.792969 L 147.066406 168.792969 L 173.527344 206.308594 Z M 173.527344 255.394531 " fill-opacity="1" fill-rule="nonzero"/><g clip-path="url(#ee0153f0a5)"><path fill="#faf2e9" d="M 165.652344 255.394531 L 112.691406 255.394531 L 112.691406 206.308594 L 139.1875 168.792969 L 165.652344 206.308594 Z M 178.378906 266.539062 L 268.738281 266.539062 L 268.738281 255.425781 L 178.378906 255.425781 Z M 178.378906 266.539062 " fill-opacity="1" fill-rule="nonzero"/></g><g clip-path="url(#33b1909d19)"><path fill="#12465a" d="M 256.335938 255.394531 L 173.527344 255.394531 L 173.527344 206.308594 L 256.335938 206.308594 Z M 135.804688 211.230469 L 127.796875 211.230469 C 127.339844 211.230469 126.949219 211.621094 126.949219 212.078125 L 126.949219 224.59375 C 126.949219 225.046875 127.339844 225.441406 127.796875 225.441406 L 135.804688 225.441406 C 136.257812 225.441406 136.648438 225.046875 136.648438 224.59375 L 136.648438 212.109375 C 136.648438 211.621094 136.257812 211.230469 135.804688 211.230469 Z M 148.726562 211.230469 L 140.71875 211.230469 C 140.261719 211.230469 139.871094 211.621094 139.871094 212.078125 L 139.871094 224.59375 C 139.871094 225.046875 140.261719 225.441406 140.71875 225.441406 L 148.726562 225.441406 C 149.179688 225.441406 149.570312 225.046875 149.570312 224.59375 L 149.570312 212.109375 C 149.570312 211.621094 149.179688 211.230469 148.726562 211.230469 Z M 135.804688 230.425781 L 127.796875 230.425781 C 127.339844 230.425781 126.949219 230.816406 126.949219 231.273438 L 126.949219 243.757812 C 126.949219 244.214844 127.339844 244.605469 127.796875 244.605469 L 135.804688 244.605469 C 136.257812 244.605469 136.648438 244.214844 136.648438 243.757812 L 136.648438 231.273438 C 136.648438 230.816406 136.257812 230.425781 135.804688 230.425781 Z M 148.726562 230.425781 L 140.71875 230.425781 C 140.261719 230.425781 139.871094 230.816406 139.871094 231.273438 L 139.871094 243.757812 C 139.871094 244.214844 140.261719 244.605469 140.71875 244.605469 L 148.726562 244.605469 C 149.179688 244.605469 149.570312 244.214844 149.570312 243.757812 L 149.570312 231.273438 C 149.570312 230.816406 149.179688 230.425781 148.726562 230.425781 Z M 105.988281 266.539062 L 178.378906 266.539062 L 178.378906 255.425781 L 105.988281 255.425781 Z M 105.988281 266.539062 " fill-opacity="1" fill-rule="nonzero"/></g></svg>